# xmcd
#
# Track frame offsets:
#	150
#	17455
#	29683
#	47338
#	59548
#	73315
#	89008
#	106310
#	120750
#	139275
#	153860
#	165118
#
# Disc length: 2356 seconds
#
# Revision: 1
# Processed by: cddbd v1.5.2PL0 Copyright (c) Steve Scherf et al.
# Submitted via: audiograbber 1.83.01
#
DISCID=9509320c
DTITLE=Various Artist - Iskelmäsuosikit Soimaan
DYEAR=1990
DGENRE=Pop
TTITLE0=Matti Ja Teppo - Mua Viedään
TTITLE1=Frederik - Savvoon Jäin
TTITLE2=Sonja Lumme - Helppoo Rahaa
TTITLE3=Topi Ja Toivottomat - Emmanuelle
TTITLE4=Reijo Taipale - Suudelmin Suljetut Kirjeet
TTITLE5=Jaakko Teppo - Rakkaus Ja Metsärahat
TTITLE6=Rainer Friman - Linnut
TTITLE7=Kaiju - Se Oli Silloin
TTITLE8=Anna Hanski - Kotiviini
TTITLE9=Jaska Mäkynen - Alla Etelän Taivaan
TTITLE10=Jukka Raitanen - Liian Köyhä Kosimaan
TTITLE11=Taisto Wesslin - Over The Rainbow
EXTD=TR.
EXTT0=
EXTT1=
EXTT2=
EXTT3=
EXTT4=
EXTT5=
EXTT6=
EXTT7=
EXTT8=
EXTT9=
EXTT10=
EXTT11=
PLAYORDER=
